/vscmnt/brussel_pixiu_data/_data_brussel/112/vsc11236/PredSimResults/SUBJ06mtu3D/weighted-trackIG/worker_01.mot
version=1
nRows=10
nColumns=50
inDegrees=yes
endheader
                time	         pelvis_tilt	         pelvis_list	     pelvis_rotation	           pelvis_tx	           pelvis_ty	           pelvis_tz	       hip_flexion_r	     hip_adduction_r	      hip_rotation_r	        knee_angle_r	       ankle_angle_r	         mtp_angle_r	       hip_flexion_l	     hip_adduction_l	      hip_rotation_l	        knee_angle_l	       ankle_angle_l	         mtp_angle_l	    lumbar_extension	      lumbar_bending	     lumbar_rotation	 ercspn_r/activation	 intobl_r/activation	 extobl_r/activation	    abd_r/activation	    add_r/activation	hamstrings_r/activation	bifemsh_r/activation	glut_max_r/activation	iliopsoas_r/activation	rect_fem_r/activation	  vasti_r/activation	gastroc_r/activation	 soleus_r/activation	tib_ant_r/activation	 ercspn_l/activation	 intobl_l/activation	 extobl_l/activation	    abd_l/activation	    add_l/activation	hamstrings_l/activation	bifemsh_l/activation	glut_max_l/activation	iliopsoas_l/activation	rect_fem_l/activation	  vasti_l/activation	gastroc_l/activation	 soleus_l/activation	tib_ant_l/activation	
          1.86579509	         -7.67630133	          4.50385181	         -8.95553376	          2.18298025	          0.92625779	          0.01493375	        -10.95635547	         -4.79403857	          6.92846887	         -5.97036304	         10.10011372	         28.95149693	         31.27440530	          0.65534636	         -5.82591427	         -1.25029135	          6.76800728	          0.21166231	         -1.98606533	         -2.54330400	          3.38446460	          0.05791928	          0.00999999	          0.00999999	          0.05987392	          0.00999999	          0.01823648	          0.14562852	          0.04572152	          0.43659902	          0.01207309	          0.00999999	          0.35744956	          0.32749233	          0.02024739	          0.10981053	          0.17782960	          0.03161009	          0.00999999	          0.08028806	          0.11278822	          0.24519489	          0.00999999	          0.11578348	          0.00999999	          0.00999999	          0.02194214	          0.00999999	          0.28129386	
          1.87823372	         -7.77393852	          4.44748209	         -9.01661141	          2.20020706	          0.92413583	          0.01472002	        -11.20392840	         -4.77877158	          6.57044848	         -7.28740078	          9.46150443	         30.92644708	         31.37935195	          0.75397377	         -5.53589611	         -2.91981927	          6.34885459	          0.21584417	         -1.71545630	         -2.89095227	          3.54970166	          0.09068121	          0.00999999	          0.00999999	          0.04959280	          0.02944424	          0.01850858	          0.12062225	          0.03787056	          0.43996005	          0.00999999	          0.00999999	          0.32898119	          0.30897657	          0.01677066	          0.09095467	          0.15258426	          0.02618223	          0.00999999	          0.11497388	          0.09887619	          0.20309181	          0.05032189	          0.09590199	          0.00999999	          0.00999999	          0.02861511	          0.01776621	          0.28954544	
          1.89067236	         -7.85112701	          4.38637424	         -9.02178698	          2.21784096	          0.92224057	          0.01441953	        -11.34901939	         -4.74694892	          6.18046919	         -8.86464274	          8.67055073	         32.94365517	         31.31219646	          0.85237514	         -5.23864909	         -4.54046254	          5.88129889	          0.19919204	         -1.42450714	         -3.24651312	          3.69019018	          0.10058835	          0.00999999	          0.00999999	          0.04107709	          0.02438829	          0.01738729	          0.09990988	          0.03136770	          0.42812836	          0.01000001	          0.02124592	          0.28464957	          0.28593991	          0.01389092	          0.07569968	          0.12638361	          0.02168641	          0.05332967	          0.09523141	          0.08995065	          0.16821837	          0.09640870	          0.07943440	          0.00999999	          0.00999999	          0.02370153	          0.01471552	          0.34556665	
          1.90311099	         -7.91023323	          4.31680574	         -8.97018392	          2.23562764	          0.92079936	          0.01400930	        -11.30519027	         -4.68821183	          5.76427496	        -10.80800806	          7.67553478	         34.98282041	         31.09816906	          0.97086687	         -4.98491165	         -5.90110443	          5.24336775	          0.17699919	         -1.14070299	         -3.60183497	          3.80061539	          0.13524556	          0.00999999	          0.00999999	          0.03402363	          0.03574231	          0.02088259	          0.08275408	          0.02598147	          0.41662901	          0.01207310	          0.01759773	          0.23577162	          0.24483073	          0.01150567	          0.08667532	          0.10468193	          0.01796258	          0.11332858	          0.12412961	          0.07753840	          0.13933314	          0.14409967	          0.06579450	          0.00999999	          0.00999999	          0.01963168	          0.01218868	          0.38076156	
          1.91554963	         -7.95047304	          4.24173553	         -8.86540684	          2.25335121	          0.91997525	          0.01350739	        -10.98523921	         -4.59841289	          5.31966889	        -13.24364074	          6.47383225	         36.94044496	         30.80867550	          1.11104347	         -4.76628485	         -7.17910184	          4.73736828	          0.14489167	         -0.88247170	         -3.96136878	          3.87764809	          0.16753843	          0.00999999	          0.00999999	          0.02818134	          0.05646728	          0.01957114	          0.06854415	          0.02152012	          0.39019727	          0.01000000	          0.01457597	          0.19528664	          0.20279018	          0.00999999	          0.08440978	          0.08670672	          0.01487818	          0.15369709	          0.15094972	          0.06557710	          0.11540787	          0.17511033	          0.05449675	          0.00999999	          0.01247081	          0.01626067	          0.01009573	          0.40528003	
          1.92798826	         -7.97113886	          4.16126538	         -8.70916566	          2.27084359	          0.91983559	          0.01293442	        -10.32666632	         -4.47565146	          4.83885311	        -16.25742027	          5.08774047	         38.60458179	         30.48170852	          1.26545318	         -4.57453870	         -8.44289397	          4.45033811	          0.12126504	         -0.66293532	         -4.32579294	          3.91827046	          0.18422213	          0.00999999	          0.00999999	          0.02334225	          0.08279898	          0.02520185	          0.05677425	          0.01782484	          0.34299559	          0.00999999	          0.01207309	          0.16175344	          0.16796853	          0.00999999	          0.08026196	          0.07181807	          0.01232340	          0.17242171	          0.13766042	          0.06303525	          0.09559087	          0.18118877	          0.04513897	          0.00999999	          0.07348150	          0.01346850	          0.00999999	          0.41317048	
          1.94042689	         -7.97390891	          4.06625773	         -8.50426807	          2.28798628	          0.92042647	          0.01232684	         -9.30581128	         -4.31622383	          4.31003425	        -19.86654912	          3.59934288	         39.54386247	         30.07797039	          1.42258499	         -4.39160774	         -9.58871932	          4.30967998	          0.09869237	         -0.49094075	         -4.68646289	          3.92166909	          0.19290923	          0.00999999	          0.00999999	          0.01933409	          0.10089127	          0.02087437	          0.04702539	          0.01476409	          0.28409889	          0.00999999	          0.00999999	          0.13397832	          0.13912620	          0.00999999	          0.06647996	          0.05948600	          0.01020732	          0.17323569	          0.11402237	          0.05651086	          0.07917670	          0.17132091	          0.03738803	          0.00999999	          0.14482656	          0.01115579	          0.00999999	          0.41024763	
          1.95286553	         -7.96113459	          3.94655852	         -8.25153385	          2.30473205	          0.92176154	          0.01171305	         -7.93921945	         -4.12367525	          3.73247543	        -24.01048224	          2.01816099	         39.44921100	         29.53824191	          1.57478122	         -4.19190953	        -10.50451689	          4.31840293	          0.08149609	         -0.36928534	         -5.03213758	          3.88692193	          0.19799239	          0.00999999	          0.00999999	          0.01601418	          0.11282649	          0.01728998	          0.05954363	          0.01222891	          0.23531550	          0.00999999	          0.00999999	          0.11097254	          0.11523646	          0.00999999	          0.05506451	          0.04927149	          0.00999999	          0.16658105	          0.09444328	          0.05393886	          0.06558106	          0.15681135	          0.03096803	          0.00999999	          0.18687987	          0.00999999	          0.00999999	          0.39731509	
          1.96530416	         -7.93508666	          3.79130662	         -7.95110686	          2.32109399	          0.92377195	          0.01111224	         -6.28185787	         -3.90127010	          3.12776522	        -28.51276595	          0.14200130	         38.45625567	         28.82823850	          1.71117804	         -3.95520931	        -11.12539747	          4.44710021	          0.07222280	         -0.29461291	         -5.34940064	          3.81347010	          0.19681623	          0.00999999	          0.00999999	          0.01326434	          0.12492292	          0.01432107	          0.07766287	          0.01012905	          0.19490884	          0.00999999	          0.00999999	          0.09191714	          0.09544890	          0.01338357	          0.04560923	          0.04081095	          0.00999999	          0.16025299	          0.07822617	          0.05195442	          0.05431996	          0.13976230	          0.02565043	          0.00999999	          0.20467377	          0.00999999	          0.00999999	          0.37937657	
          1.97774279	         -7.89738873	          3.58763101	         -7.60298309	          2.33708635	          0.92631936	          0.01053921	         -4.40051577	         -3.64313705	          2.52145380	        -33.20773107	         -1.96758312	         36.38559712	         27.95674732	          1.81543985	         -3.65816097	        -11.46245419	          4.65574815	          0.07057153	         -0.26508469	         -5.62261780	          3.70110424	          0.19728331	          0.00999999	          0.02476701	          0.01098668	          0.11971102	          0.01186196	          0.06432717	          0.00999999	          0.16144051	          0.00999999	          0.00999999	          0.07613380	          0.07905911	          0.06478393	          0.03777755	          0.03380319	          0.00999999	          0.16230343	          0.06479374	          0.04768919	          0.04499253	          0.11576334	          0.02124592	          0.00999999	          0.19249289	          0.00999999	          0.00999999	          0.35554959	
